<?xml version="1.0" encoding="UTF-8"?>
<svg width="12px" height="12px" viewBox="0 0 12 12" version="1.1" xmlns="http://www.w3.org/2000/svg" xmlns:xlink="http://www.w3.org/1999/xlink">
    <!-- Generator: Sketch 63.1 (92452) - https://sketch.com -->
    <title>展开</title>
    <desc>Created with Sketch.</desc>
    <g id="森林资源" stroke="none" stroke-width="1" fill="none" fill-rule="evenodd">
        <g id="森林资源2" transform="translate(-91.000000, -906.000000)" fill="#FFFFFF" fill-rule="nonzero">
            <g id="编组-14" transform="translate(55.000000, 211.000000)">
                <path d="M47.0354799,695.962808 L47.0354799,706.036621 L36.9633787,706.036621 L36.9633787,695.963379 L47.0354799,695.963379 L47.0354799,695.962808 Z M47.0354799,695 L36.9633787,695 C36.4308951,695 36,695.430895 36,695.962808 L36,706.036621 C36,706.569105 36.4308951,707 36.9633787,707 L47.0366213,707 C47.5691049,707 48,706.569105 48,706.036621 L48,695.963379 C47.9993701,695.431135 47.5677242,695 47.0354799,695 Z M44.9420717,700.524589 L42.4879673,700.524589 L42.4879673,698.069913 C42.4879673,697.804041 42.2724354,697.588509 42.0065633,697.588509 C41.7406912,697.588509 41.5251593,697.804041 41.5251593,698.069913 L41.5245886,700.524018 L39.0567868,700.524018 C38.7909148,700.524018 38.5753829,700.73955 38.5753829,701.005422 C38.5753829,701.271294 38.7909148,701.486826 39.0567868,701.486826 L41.5245886,701.487397 L41.5245886,703.928374 C41.5245886,704.194246 41.7401205,704.409778 42.0059926,704.409778 C42.2718647,704.409778 42.4873966,704.194246 42.4873966,703.928374 L42.4873966,701.487397 L44.9420717,701.487397 C45.2079438,701.487397 45.4234757,701.271865 45.4234757,701.005993 C45.4234757,700.740121 45.2079438,700.524589 44.9420717,700.524589 Z" id="展开"></path>
            </g>
        </g>
    </g>
</svg>