<?xml version="1.0" encoding="UTF-8"?>
<svg width="12px" height="12px" viewBox="0 0 12 12" version="1.1" xmlns="http://www.w3.org/2000/svg" xmlns:xlink="http://www.w3.org/1999/xlink">
    <!-- Generator: Sketch 63.1 (92452) - https://sketch.com -->
    <title>收起</title>
    <desc>Created with Sketch.</desc>
    <g id="森林资源" stroke="none" stroke-width="1" fill="none" fill-rule="evenodd">
        <g id="森林资源1" transform="translate(-91.000000, -216.000000)" fill="#FFFFFF" fill-rule="nonzero">
            <path d="M102.03548,216.962808 L102.03548,227.036621 L91.9633787,227.036621 L91.9633787,216.963379 L102.03548,216.963379 L102.03548,216.962808 Z M102.03548,216 L91.9633787,216 C91.4308951,216 91,216.430895 91,216.962808 L91,227.036621 C91,227.569105 91.4308951,228 91.9633787,228 L102.036621,228 C102.569105,228 103,227.569105 103,227.036621 L103,216.963379 C102.99937,216.431135 102.567724,216 102.03548,216 Z M99.9420717,221.524589 L94.0567868,221.524018 C93.7909148,221.524018 93.5753829,221.73955 93.5753829,222.005422 C93.5753829,222.271294 93.7909148,222.486826 94.0567868,222.486826 L99.9420717,222.487397 C100.207944,222.487397 100.423476,222.271865 100.423476,222.005993 C100.423476,221.740121 100.207944,221.524589 99.9420717,221.524589 Z" id="收起"></path>
        </g>
    </g>
</svg>