<?xml version="1.0" encoding="UTF-8"?>
<svg width="12px" height="8px" viewBox="0 0 12 8" version="1.1" xmlns="http://www.w3.org/2000/svg" xmlns:xlink="http://www.w3.org/1999/xlink">
    <!-- Generator: Sketch 63.1 (92452) - https://sketch.com -->
    <title>显示</title>
    <desc>Created with Sketch.</desc>
    <g id="森林资源" stroke="none" stroke-width="1" fill="none" fill-rule="evenodd">
        <g id="森林资源1" transform="translate(-135.000000, -322.000000)" fill="#00FE92" fill-rule="nonzero">
            <path d="M141.000021,322 C143.724396,322 146.054261,323.657072 147,326 C146.054261,328.342928 143.724396,330 140.999979,330 C138.275604,330 135.945739,328.342928 135,326 C135.945781,323.657072 138.275604,322 140.999979,322 L140.999979,322 Z M140.999979,323.340206 C139.502884,323.340206 138.289221,324.531052 138.289221,326 C138.289221,327.468948 139.502884,328.659794 140.999979,328.659794 C142.497116,328.659794 143.710737,327.468948 143.710737,326 C143.710737,324.531052 142.497116,323.340206 140.999979,323.340206 Z M140.999979,324.412371 C141.893605,324.412371 142.618028,325.123175 142.618028,326 C142.618028,326.876825 141.893605,327.587629 140.999979,327.587629 C140.106353,327.587629 139.38193,326.876825 139.38193,326 C139.38193,325.123175 140.106353,324.412371 140.999979,324.412371 Z" id="显示"></path>
        </g>
    </g>
</svg>