<?xml version="1.0" encoding="UTF-8"?>
<svg width="12px" height="8px" viewBox="0 0 12 8" version="1.1" xmlns="http://www.w3.org/2000/svg" xmlns:xlink="http://www.w3.org/1999/xlink">
    <!-- Generator: Sketch 63.1 (92452) - https://sketch.com -->
    <title>隐藏</title>
    <desc>Created with Sketch.</desc>
    <g id="森林资源" stroke="none" stroke-width="1" fill="none" fill-rule="evenodd">
        <g id="森林资源1" transform="translate(-135.000000, -355.000000)" fill="#9D9B9A" fill-rule="nonzero">
            <path d="M141.000021,355 C143.724396,355 146.054261,356.657072 147,359 C146.054261,361.342928 143.724396,363 140.999979,363 C138.275604,363 135.945739,361.342928 135,359 C135.945781,356.657072 138.275604,355 140.999979,355 L140.999979,355 Z M140.999979,356.340206 C139.502884,356.340206 138.289221,357.531052 138.289221,359 C138.289221,360.468948 139.502884,361.659794 140.999979,361.659794 C142.497116,361.659794 143.710737,360.468948 143.710737,359 C143.710737,357.531052 142.497116,356.340206 140.999979,356.340206 Z M140.999979,357.412371 C141.893605,357.412371 142.618028,358.123175 142.618028,359 C142.618028,359.876825 141.893605,360.587629 140.999979,360.587629 C140.106353,360.587629 139.38193,359.876825 139.38193,359 C139.38193,358.123175 140.106353,357.412371 140.999979,357.412371 Z" id="隐藏"></path>
        </g>
    </g>
</svg>